<svg xmlns="http://www.w3.org/2000/svg" width="800" height="480" viewBox="0 0 800 480"><defs><linearGradient id="sky" x2="1" y2="1"><stop stop-color="#101d39"/><stop offset="1" stop-color="#4a4469"/></linearGradient></defs><rect width="800" height="480" fill="url(#sky)"/><circle cx="610" cy="125" r="75" fill="#b5b5ed" opacity=".12"/><path d="M0 325L160 250 320 350 470 290 640 360 800 300V480H0" fill="#162d49"/><path d="M0 403H800V480H0" fill="#17435a"/><g stroke="#74cadb" opacity=".2"><path d="M0 429H190M230 453H440M530 432H800"/></g><path d="M370 390H730L700 440H420Z" fill="#546b83"/><path d="M380 387H725" stroke="#a5f4df" stroke-width="6"/><path d="M611 388V343H671V388M642 343V323" fill="#72869b" stroke="#72869b" stroke-width="7"/><g transform="translate(360 225) rotate(-10)"><path d="M-120-10L-199 0-120 14" fill="#ffb979"/><path d="M-120-23L-103-90-60-20 26-20 149 8 63 32-119 23Z" fill="#dae9fa"/><path d="M-38 0L-76 91 58 13" fill="#91a9c5"/><path d="M5-21L43-48 83-18Z" fill="#77e6f1"/><path d="M-109 3H-59" stroke="#334d6b" stroke-width="8"/></g><g fill="#fa999b"><path d="M657 176L714 164 725 147 732 165 752 176 721 184Z"/><path d="M552 105L598 94 609 82 614 96 632 105 602 112Z"/></g><path d="M470 207L505 202M519 199L544 195" stroke="#a1f5e7" stroke-width="4"/><text x="35" y="52" fill="#a6f1df" font-family="sans-serif" font-size="15" letter-spacing="4">IXE / FLIGHT OPERATIONS</text><text x="35" y="345" fill="#eef5ff" font-family="sans-serif" font-weight="bold" font-size="38">FIGHTER COMMAND</text><text x="37" y="373" fill="#b9cce8" font-family="sans-serif" font-size="15" letter-spacing="2">TAKE OFF · ENGAGE · RETURN</text></svg>
