<svg xmlns="http://www.w3.org/2000/svg" viewBox="0 0 800 480"><defs><linearGradient id="sky" x2="0" y2="1"><stop stop-color="#241d43"/><stop offset="1" stop-color="#583363"/></linearGradient><linearGradient id="road" x2="0" y2="1"><stop stop-color="#40344f"/><stop offset="1" stop-color="#151925"/></linearGradient><linearGradient id="car" x2="1" y2="1"><stop stop-color="#d2bdff"/><stop offset="1" stop-color="#8d6ecf"/></linearGradient></defs><rect width="800" height="480" fill="url(#sky)"/><circle cx="400" cy="118" r="65" fill="#ed9eba"/><path d="M0 177 66 100 130 153 217 86 309 162 405 130 493 169 582 106 660 151 735 88 800 174V300H0" fill="#30283f"/><path d="M325 173h150L735 480H65Z" fill="url(#road)"/><path d="M325 173 65 480M475 173 735 480" stroke="#c69cff" stroke-width="7"/><path d="M375 173 277 480M425 173 523 480" stroke="#e7d5f6" stroke-width="5" stroke-dasharray="25 25"/><path d="M0 266h174M0 340h123M800 266H626M800 340H677" stroke="#a175d1" stroke-width="3" opacity=".4"/><g transform="translate(359 243)"><rect x="-11" y="45" width="104" height="23" rx="5" fill="#12121c"/><rect x="-13" y="122" width="108" height="23" rx="5" fill="#12121c"/><rect width="82" height="159" rx="22" fill="url(#car)"/><path d="m14 30 54 0 5 39H9z" fill="#242c47"/><path d="M13 104h57v26H13z" fill="#242c47"/><path d="M38 3h6v151h-6z" fill="#ffffff38"/><rect x="7" y="9" width="18" height="8" rx="3" fill="#fff3d4"/><rect x="57" y="9" width="18" height="8" rx="3" fill="#fff3d4"/><path d="M8 148h18m30 0h18" stroke="#ff88ae" stroke-width="7"/></g><g transform="translate(295 194) scale(.44)"><rect width="82" height="159" rx="18" fill="#f69a89"/><rect x="10" y="25" width="62" height="43" rx="5" fill="#2a3247"/><rect x="10" y="112" width="62" height="22" rx="3" fill="#2a3247"/></g><text x="32" y="449" fill="#d6bfdc" font-family="monospace" font-size="10" letter-spacing="3">CHASE THE NEXT HORIZON.</text></svg>
